PathFileType	4	(X/Y/Z)	C:/Users/opensim2020/Desktop/walking_exp_matlab/subject02_walking05_straight_03.trc	
DataRate	CameraRate	NumFrames	NumMarkers	Units	OrigDataRate	OrigDataStartFrame	OrigNumFrames	
100.00	100.00	6	42	mm	100.00	2217	224	
Frame#	Time	LFHD			RFHD			LBHD			RBHD			C7			T10			CLAV			STRN			RBAK			LSHO			LUPA			LELB			LFRM			LWRA			LWRB			LFIN			RSHO			RUPA			RELB			RFRM			RWRA			RWRB			RFIN			LASI			RASI			LPSI			RPSI			LTHI			LKNE			LTIB			LANK			LHEE			LTOE			RTHI			RKNE			RTIB			RANK			RHEE			RTOE			*39			*40			*41			
		X1	Y1	Z1	X2	Y2	Z2	X3	Y3	Z3	X4	Y4	Z4	X5	Y5	Z5	X6	Y6	Z6	X7	Y7	Z7	X8	Y8	Z8	X9	Y9	Z9	X10	Y10	Z10	X11	Y11	Z11	X12	Y12	Z12	X13	Y13	Z13	X14	Y14	Z14	X15	Y15	Z15	X16	Y16	Z16	X17	Y17	Z17	X18	Y18	Z18	X19	Y19	Z19	X20	Y20	Z20	X21	Y21	Z21	X22	Y22	Z22	X23	Y23	Z23	X24	Y24	Z24	X25	Y25	Z25	X26	Y26	Z26	X27	Y27	Z27	X28	Y28	Z28	X29	Y29	Z29	X30	Y30	Z30	X31	Y31	Z31	X32	Y32	Z32	X33	Y33	Z33	X34	Y34	Z34	X35	Y35	Z35	X36	Y36	Z36	X37	Y37	Z37	X38	Y38	Z38	X39	Y39	Z39	X40	Y40	Z40	X41	Y41	Z41	X42	Y42	Z42	

141	1.400	-1053.05029	271.08398	1737.77576	-910.84296	249.36720	1719.54089	-1081.33740	150.96420	1650.77429	-942.87744	117.95444	1630.13098	-996.41614	90.64161	1517.46631	-982.26117	27.77661	1245.92700	-1015.28137	228.70615	1445.50415	-998.13867	276.35779	1273.07446	-919.80420	33.35431	1350.43201	-1179.19006	144.70541	1482.59473	-1255.43164	82.98328	1292.67175	-1269.73022	48.53312	1157.95886	-1293.05652	28.56059	1028.14087	-1287.80347	66.81621	892.99683	-1304.90991	14.49938	906.31470	-1317.73267	19.85800	840.60352	-816.67554	185.05901	1491.65820	-717.59314	190.68355	1306.08984	-693.26154	232.42540	1164.84131	-679.10980	293.23102	1060.00012	-704.42834	371.06769	951.84351	-666.45654	331.56650	935.98816	-667.77197	385.80750	888.38501	-1113.24329	258.81750	985.10449	-856.45660	247.19812	967.15948	-1041.09949	46.86537	1022.51282	-927.62842	36.39178	1023.77808	-1194.52905	258.49863	682.97021	-1173.22766	315.50409	492.09650	-1189.56885	336.66013	301.06506	-1178.10754	432.65982	94.04721	-1128.21631	410.42438	53.31386	-1181.48962	590.08746	110.93531	-807.95813	130.55693	662.41681	-853.25568	92.43047	455.35846	-848.55615	13.40493	283.22003	-889.76483	-44.12213	97.41172	-944.93848	-87.66162	45.51778	-875.14282	101.12666	37.00265	-981.63068	150.62318	1793.80859	-3360.21851	2845.07983	1033.78040			 
142	1.410	-1055.18738	281.08926	1736.30542	-912.74274	259.23361	1718.57422	-1083.42090	161.32477	1648.72339	-944.82281	127.99702	1628.02124	-998.40472	101.11018	1515.83923	-984.59082	38.16658	1244.29761	-1016.82861	239.31418	1443.79919	-999.19299	286.78186	1271.34070	-921.99182	43.45364	1348.89417	-1180.92822	155.70958	1480.58313	-1256.66370	93.10417	1291.07336	-1270.68762	57.50013	1156.65967	-1294.35291	35.95102	1027.43604	-1289.13721	72.69086	891.55902	-1305.88354	20.38710	905.48364	-1318.41846	24.81639	839.63922	-818.36572	195.19360	1490.04150	-719.37018	201.34143	1304.40442	-695.07117	243.76669	1163.24353	-681.66858	305.94882	1059.19861	-707.34747	384.30630	951.54504	-669.25745	345.23840	935.27148	-670.82471	399.92419	888.46240	-1113.47510	270.85614	983.77777	-856.59711	256.59131	965.41302	-1043.49780	57.96712	1020.78632	-930.24121	46.64336	1021.82800	-1195.71460	272.68384	682.37512	-1174.69177	328.06317	491.00763	-1192.03943	351.57813	300.48087	-1180.41943	450.41245	94.58378	-1131.20679	427.86536	53.07902	-1180.93286	607.57770	113.43647	-808.84625	137.43964	661.58691	-853.70569	97.92949	454.73181	-849.18628	16.50382	283.64072	-890.20557	-43.42234	98.53725	-945.57947	-87.16854	46.78383	-875.02795	101.33607	36.98438	-984.12341	160.12207	1791.90979	-3360.20166	2845.16919	1034.06226			 
143	1.420	-1057.35400	291.08899	1734.86963	-915.04102	269.28586	1717.34546	-1085.65869	171.67915	1646.63977	-946.89886	138.24417	1626.40112	-1000.44623	111.59003	1514.21509	-986.88715	48.72075	1242.71411	-1018.47919	249.93839	1442.15454	-1000.36249	297.35684	1269.73914	-924.19226	53.67456	1347.42432	-1183.09192	166.92293	1478.92249	-1258.56201	103.45543	1289.53918	-1271.84949	66.86618	1155.35925	-1295.18494	43.69736	1026.34924	-1290.42871	79.04871	890.35248	-1306.93213	26.69793	904.65381	-1319.37732	30.24817	838.74200	-820.05341	205.30597	1488.42896	-721.36407	211.86792	1302.68201	-696.99689	254.97839	1161.67004	-683.77313	317.90463	1057.89954	-710.28613	397.41235	951.29901	-672.13428	358.53610	934.55627	-673.75763	414.12625	888.41772	-1113.94897	283.01688	982.56323	-856.83466	266.61258	963.77875	-1045.90271	69.08151	1019.13690	-932.83472	57.04900	1019.98004	-1196.79578	287.38177	681.89880	-1176.09082	340.94073	490.10904	-1194.28564	365.79633	299.83017	-1182.41187	465.92215	94.59645	-1133.59802	443.35989	52.19372	-1180.52515	622.90186	114.38547	-809.90637	144.57047	660.78534	-854.12036	103.79952	453.88895	-849.79755	19.70644	284.16989	-890.47137	-42.65667	99.79173	-945.99603	-86.48515	48.43731	-874.90094	101.47150	36.98778	-986.76105	169.76772	1790.08569	-3360.30225	2845.19971	1033.88196			 
144	1.430	-1059.61816	301.12415	1733.51929	-917.25964	279.24780	1715.98706	-1087.86133	182.06134	1644.81824	-949.15833	148.45692	1624.98853	-1002.62451	122.08229	1512.67883	-989.21417	59.23549	1241.18188	-1020.26031	260.62860	1440.62988	-1001.67700	307.96762	1268.26514	-926.23260	63.96904	1345.88831	-1185.14233	178.03357	1477.20801	-1260.28894	114.02299	1287.93884	-1273.16492	76.42326	1154.05652	-1296.26917	51.90446	1025.14832	-1291.70496	85.74636	888.88788	-1308.14026	33.56196	903.90259	-1320.39417	36.18579	837.80988	-821.88715	215.39006	1486.93469	-723.55670	221.85451	1300.76636	-699.12140	266.03421	1160.18054	-686.24762	330.00650	1056.98315	-713.24255	410.25446	951.03424	-675.15643	371.57431	933.77515	-677.10052	427.53308	888.06049	-1114.58545	295.21454	981.48584	-857.65314	276.16415	961.70325	-1048.41492	80.37089	1017.56543	-935.43756	67.76301	1018.25226	-1197.87866	302.32318	681.50159	-1177.40393	354.40881	489.42117	-1196.08423	379.44571	298.96228	-1184.15125	479.22360	93.99224	-1135.98120	455.74911	51.42963	-1180.23169	636.07288	113.87570	-810.98206	152.03398	659.98743	-854.48499	110.13879	453.28369	-850.34735	23.24581	284.77859	-890.61127	-41.80120	101.26313	-946.42395	-86.15480	50.26263	-874.71527	101.68184	36.97717	-989.14130	179.58743	1788.49878	-3360.30200	2845.19946	1033.88989			 
145	1.440	-1061.92261	311.24274	1732.21741	-919.48846	289.02118	1714.93481	-1090.06067	192.53119	1643.21533	-951.43561	158.83264	1623.18030	-1004.79999	132.67809	1511.14441	-991.63147	69.89230	1239.66040	-1022.06519	271.32080	1439.18909	-1003.17358	318.78119	1266.93945	-928.53339	73.69855	1344.85950	-1187.25122	189.14018	1475.56299	-1262.19727	124.74472	1286.38477	-1274.56177	86.33338	1152.81921	-1297.72754	60.45204	1024.45569	-1293.11975	92.82082	887.31964	-1309.50940	40.91733	903.13171	-1321.49731	42.65966	836.94946	-823.78864	225.24625	1485.55310	-725.71527	232.03954	1299.16028	-701.34888	276.86844	1158.73413	-688.96899	341.64948	1055.84570	-716.38281	422.78821	950.82526	-678.30200	384.28757	933.03119	-680.37341	440.63312	888.07001	-1115.62183	307.61554	980.54572	-858.52063	286.49283	960.06573	-1051.02661	91.82202	1016.11780	-938.12054	78.59426	1016.59393	-1199.02075	317.33981	681.32092	-1179.03320	367.82620	488.73990	-1198.12732	392.29459	298.24338	-1185.44617	490.56143	92.67033	-1137.74829	466.32123	49.98634	-1179.98413	647.16382	111.92859	-812.25916	159.83069	659.30371	-854.95447	116.85509	452.69879	-850.63525	26.90292	285.52008	-890.58105	-40.77372	103.02892	-946.31653	-85.79234	52.88899	-874.48633	101.89946	36.98519	-991.67688	189.37488	1787.01343	-3360.33423	2845.27612	1033.92090			 
146	1.450	-1064.30139	321.32297	1731.10889	-921.83734	299.15009	1714.21375	-1092.38281	202.91684	1641.61328	-953.79315	169.17917	1621.71313	-1007.14374	143.22899	1509.77039	-994.10168	80.81166	1238.15125	-1024.04492	282.08145	1437.93481	-1004.77478	329.59103	1265.70520	-931.21045	84.73235	1342.98987	-1189.44299	200.22818	1474.07336	-1264.26440	135.61678	1285.11462	-1276.20166	96.54663	1151.66492	-1299.36755	69.57595	1023.36035	-1294.54333	100.58659	886.26849	-1311.01587	48.78667	902.45288	-1322.64551	49.69122	836.10522	-825.79236	235.46152	1484.32458	-728.02618	242.48830	1297.88501	-703.78772	287.50745	1157.36230	-691.64868	353.07623	1054.92297	-719.51147	434.97256	950.58594	-681.57037	396.62842	932.34253	-683.67462	453.42938	887.79175	-1116.98865	320.08707	979.73401	-859.58191	297.10953	958.42426	-1053.65771	103.41684	1014.78284	-940.85175	89.77835	1014.98279	-1200.36438	332.23932	681.05957	-1180.37585	381.48856	488.05200	-1200.03040	404.28885	297.34097	-1186.48718	500.09250	90.77549	-1139.07617	475.09943	48.08408	-1179.74011	656.56335	108.96613	-813.57916	168.09921	658.49341	-855.53333	124.16481	452.08127	-851.19305	31.55206	286.48737	-890.21277	-39.69318	105.09937	-945.87506	-85.29506	55.63672	-874.19202	102.13621	37.01470	-994.29205	199.18784	1785.49280	-3360.31787	2845.07690	1033.99609			 
